#!OML:ASF H:\Punching\Project 1\Capture day 1\Session 1\female.ASF
:FULLY-SPECIFIED
:DEGREES
1338
root -1.65744 12.4315 4.98053 14.9963 20.2384 3.02342
lowerback 17.7871 2.76703 4.37635
upperback -0.22638 4.88296 2.84283
thorax -10.1393 2.17879 -0.647503
lowerneck -12.6184 -3.14542 5.4245
upperneck 19.2891 -5.38205 -0.151718
head 7.90155 -2.13777 -1.4968
rclavicle 1.03368e-014 -4.29375e-014
rhumerus 20.3025 15.7385 -75.3673
rradius 135.807
rwrist -43.4043
rhand -19.84 -5.45169
rfingers 7.12502
rthumb 6.49431 -35.3321
lclavicle 1.03368e-014 -4.29375e-014
lhumerus -6.67263 -18.2929 88.025
lradius 137.014
lwrist 21.5989
lhand -11.0589 32.7581
lfingers 7.12502
lthumb 14.9638 62.1975
rfemur -67.7538 -8.7604 7.65248
rtibia 86.7136
rfoot -24.1607 -15.1367
rtoes -9.05762
lfemur -44.9294 -4.95054 7.94278
ltibia 81.2945
lfoot -25.9638 -18.3933
ltoes -40.9984
1339
root -1.63523 12.4521 4.96882 15.1565 18.8925 2.81653
lowerback 17.5368 2.75075 4.25665
upperback -0.231606 4.78946 2.56726
thorax -9.98935 2.13642 -0.842055
lowerneck -12.6649 -2.56919 6.04592
upperneck 19.4091 -4.64763 -0.560702
head 7.9469 -1.78383 -1.66365
rclavicle -6.36111e-015 3.18055e-015
rhumerus 20.3268 17.0651 -76.2467
rradius 135.793
rwrist -43.3849
rhand -19.6822 -5.293
rfingers 7.12502
rthumb 6.64665 -35.1687
lclavicle -6.36111e-015 3.18055e-015
lhumerus -6.25403 -16.4461 86.9496
lradius 135.666
lwrist 19.9449
lhand -10.6738 32.5385
lfingers 7.12502
lthumb 15.3347 61.9499
rfemur -68.343 -8.07975 7.82862
rtibia 86.142
rfoot -23.7323 -14.5361
rtoes -9.00674
lfemur -44.3318 -4.55939 7.77099
ltibia 81.2414
lfoot -26.2173 -17.6685
ltoes -41.5277
1340
root -1.61017 12.4723 4.95598 15.319 17.3693 2.54351
lowerback 17.2546 2.71051 4.11752
upperback -0.231324 4.66008 2.29272
thorax -9.81908 2.07889 -1.01355
lowerneck -12.6813 -1.91639 6.72249
upperneck 19.5405 -3.81281 -0.99484
head 8.00175 -1.3809 -1.83799
rclavicle -1.28017e-013 1.27222e-014
rhumerus 20.3513 18.3834 -77.0936
rradius 135.784
rwrist -43.3483
rhand -19.5113 -5.14853
rfingers 7.12502
rthumb 6.8116 -35.019
lclavicle -1.28017e-013 1.27222e-014
lhumerus -5.60383 -14.328 85.7676
lradius 134.085
lwrist 18.3909
lhand -9.88815 32.3641
lfingers 7.12502
lthumb 16.0914 61.716
rfemur -68.9943 -7.34165 8.07991
rtibia 85.5028
rfoot -23.2718 -13.7949
rtoes -8.97718
lfemur -43.6896 -4.07636 7.612
ltibia 81.2552
lfoot -26.4374 -16.8898
ltoes -42.0363
1341
root -1.58235 12.4919 4.94195 15.484 15.6801 2.20292
lowerback 16.9399 2.65174 3.96032
upperback -0.224113 4.5035 2.02696
thorax -9.62689 2.01035 -1.15687
lowerneck -12.6517 -1.19298 7.45337
upperneck 19.6716 -2.88143 -1.46195
head 8.06187 -0.931944 -2.02214
rclavicle -4.77083e-015 -4.6118e-014
rhumerus 20.374 19.6694 -77.8857
rradius 135.751
rwrist -43.2564
rhand -19.3394 -4.98597
rfingers 7.12502
rthumb 6.9775 -34.851
lclavicle -4.77083e-015 -4.6118e-014
lhumerus -4.72631 -12.0199 84.5131
lradius 132.294
lwrist 17.0196
lhand -8.92846 32.2149
lfingers 7.12502
lthumb 17.0153 61.4896
rfemur -69.7021 -6.55104 8.41089
rtibia 84.7972
rfoot -22.7771 -12.9064
rtoes -8.91715
lfemur -43.0067 -3.51345 7.47537
ltibia 81.3282
lfoot -26.6189 -16.0763
ltoes -42.5227
1342
root -1.55147 12.5108 4.92731 15.6408 13.8458 1.78632
lowerback 16.605 2.57055 3.80188
upperback -0.219557 4.31984 1.77407
thorax -9.42946 1.92939 -1.27848
lowerneck -12.5423 -0.409998 8.24297
upperneck 19.7996 -1.86531 -1.9602
head 8.12289 -0.441886 -2.21695
rclavicle -1.19271e-014 3.49861e-014
rhumerus 20.3812 20.9204 -78.6194
rradius 135.668
rwrist -43.1005
rhand -19.2428 -4.88496
rfingers 7.12502
rthumb 7.07078 -34.7468
lclavicle -1.19271e-014 3.49861e-014
lhumerus -3.66594 -9.61942 83.1999
lradius 130.308
lwrist 15.8888
lhand -8.10507 32.0771
lfingers 7.12502
lthumb 17.8077 61.2818
rfemur -70.4326 -5.71987 8.83962
rtibia 84.0266
rfoot -22.2589 -11.8883
rtoes -8.84508
lfemur -42.2749 -2.88826 7.37862
ltibia 81.4521
lfoot -26.774 -15.2474
ltoes -42.9936
1343
root -1.51672 12.5298 4.91417 15.758 11.8718 1.30371
lowerback 16.271 2.47233 3.65308
upperback -0.213584 4.11854 1.5271
thorax -9.23251 1.83949 -1.39568
lowerneck -12.3097 0.420619 9.10878
upperneck 19.9107 -0.775677 -2.49812
head 8.17481 0.0845573 -2.42902
rclavicle 8.22969e-014 1.59028e-014
rhumerus 20.3252 22.1402 -79.2959
rradius 135.543
rwrist -42.8674
rhand -19.2071 -4.81292
rfingers 7.12502
rthumb 7.10528 -34.6736
lclavicle 8.22969e-014 1.59028e-014
lhumerus -2.47626 -7.23436 81.8466
lradius 128.115
lwrist 15.0198
lhand -7.70109 31.9396
lfingers 7.12502
lthumb 18.1964 61.1085
rfemur -71.1185 -4.85259 9.35984
rtibia 83.1929
rfoot -21.7338 -10.7424
rtoes -8.75602
lfemur -41.4263 -2.2274 7.3019
ltibia 81.6061
lfoot -26.9375 -14.3757
ltoes -43.5125
1344
root -1.47945 12.5482 4.90223 15.8483 9.80225 0.756159
lowerback 15.9491 2.35909 3.53887
upperback -0.205297 3.90646 1.27873
thorax -9.03892 1.74247 -1.53275
lowerneck -12.0249 1.28431 10.0523
upperneck 20.0347 0.359549 -3.06179
head 8.24245 0.636918 -2.65803
rclavicle -1.70955e-014 -4.92986e-014
rhumerus 20.2058 23.2961 -79.9011
rradius 135.391
rwrist -42.5967
rhand -19.2572 -4.79879
rfingers 7.12502
rthumb 7.05684 -34.6612
lclavicle -1.70955e-014 -4.92986e-014
lhumerus -1.10387 -4.97969 80.4508
lradius 125.672
lwrist 14.3871
lhand -7.91241 31.8667
lfingers 7.12502
lthumb 17.9931 61.0544
rfemur -71.7475 -3.97516 9.98756
rtibia 82.3057
rfoot -21.2018 -9.5019
rtoes -8.66481
lfemur -40.5037 -1.5588 7.26987
ltibia 81.7837
lfoot -27.0659 -13.528
ltoes -43.9639
1345
root -1.44033 12.5656 4.8909 15.9142 7.64881 0.145867
lowerback 15.659 2.23412 3.46298
upperback -0.214665 3.68959 1.02629
thorax -8.88152 1.63996 -1.69773
lowerneck -11.6424 2.16906 11.0942
upperneck 20.1697 1.52965 -3.65923
head 8.31955 1.21145 -2.91091
rclavicle -3.10104e-014 7.15625e-015
rhumerus 19.964 24.4048 -80.4541
rradius 135.244
rwrist -42.3324
rhand -19.3538 -4.84161
rfingers 7.12502
rthumb 6.96365 -34.7071
lclavicle -3.10104e-014 7.15625e-015
lhumerus 0.408217 -2.90699 79.0214
lradius 122.9
lwrist 13.9273
lhand -8.7984 31.8372
lfingers 7.12502
lthumb 17.1405 61.1012
rfemur -72.3165 -3.08138 10.7223
rtibia 81.3729
rfoot -20.6497 -8.18896
rtoes -8.55903
lfemur -39.5074 -0.875824 7.28445
ltibia 81.9736
lfoot -27.1654 -12.6981
ltoes -44.389
1346
root -1.39957 12.582 4.88191 15.9576 5.44773 -0.499652
lowerback 15.3962 2.09624 3.42569
upperback -0.229448 3.46388 0.757439
thorax -8.74405 1.53038 -1.90253
lowerneck -11.194 3.05677 12.1884
upperneck 20.3191 2.70458 -4.22268
head 8.41273 1.79741 -3.16003
rclavicle -1.35174e-014 3.97569e-015
rhumerus 19.6212 25.4284 -80.9485
rradius 135.119
rwrist -42.1273
rhand -19.4417 -4.91886
rfingers 7.12502
rthumb 6.87881 -34.7871
lclavicle -1.35174e-014 3.97569e-015
lhumerus 2.12323 -1.03998 77.5469
lradius 119.695
lwrist 13.5541
lhand -10.2375 31.8537
lfingers 7.12502
lthumb 15.7549 61.2325
rfemur -72.7836 -2.20621 11.5495
rtibia 80.4113
rfoot -20.0937 -6.85046
rtoes -8.50387
lfemur -38.4406 -0.232272 7.32091
ltibia 82.1643
lfoot -27.2101 -11.9181
ltoes -44.6761
1347
root -1.35827 12.598 4.87518 15.9779 3.21375 -1.16255
lowerback 15.1644 1.94813 3.40731
upperback -0.239856 3.22874 0.472117
thorax -8.61992 1.41466 -2.13596
lowerneck -10.7067 3.94133 13.3153
upperneck 20.4857 3.8752 -4.73529
head 8.52692 2.39048 -3.39644
rclavicle -1.78906e-015 1.74931e-014
rhumerus 19.2047 26.3603 -81.3803
rradius 135.028
rwrist -42.0225
rhand -19.4748 -5.00427
rfingers 7.12502
rthumb 6.84687 -34.8736
lclavicle -1.78906e-015 1.74931e-014
lhumerus 4.09005 0.669259 76.0502
lradius 115.946
lwrist 13.16
lhand -11.9674 31.889
lfingers 7.12502
lthumb 14.0884 61.3914
rfemur -73.1445 -1.33936 12.4404
rtibia 79.4344
rfoot -19.5401 -5.49445
rtoes -8.41894
lfemur -37.3003 0.355973 7.35998
ltibia 82.3402
lfoot -27.2026 -11.1768
ltoes -44.8297
1348
root -1.31736 12.6131 4.87096 15.9779 0.974376 -1.82291
lowerback 14.9561 1.78062 3.37847
upperback -0.252521 2.96705 0.176342
thorax -8.51543 1.28579 -2.37119
lowerneck -10.1445 4.81494 14.4559
upperneck 20.6652 5.03825 -5.18105
head 8.65269 2.98941 -3.61134
rclavicle 9.14409e-015 3.18055e-015
rhumerus 18.7261 27.2142 -81.7709
rradius 134.959
rwrist -42.01
rhand -19.4183 -5.06667
rfingers 7.12502
rthumb 6.90136 -34.9342
lclavicle 9.14409e-015 3.18055e-015
lhumerus 6.29995 2.30303 74.5366
lradius 111.559
lwrist 12.6441
lhand -13.6823 31.9285
lfingers 7.12502
lthumb 12.4354 61.5386
rfemur -73.3927 -0.489697 13.3728
rtibia 78.464
rfoot -19.0047 -4.13567
rtoes -8.32043
lfemur -36.0977 0.865751 7.38336
ltibia 82.4917
lfoot -27.1388 -10.4665
ltoes -44.8479
1349
root -1.2778 12.627 4.8695 15.9495 -1.25203 -2.45914
lowerback 14.7592 1.59072 3.30971
upperback -0.254 2.6693 -0.124702
thorax -8.41178 1.14117 -2.58323
lowerneck -9.49216 5.67398 15.5918
upperneck 20.8367 6.19749 -5.56311
head 8.77873 3.59383 -3.80193
rclavicle -1.78906e-015 1.19271e-015
rhumerus 18.2336 27.9988 -82.1221
rradius 134.876
rwrist -42.0469
rhand -19.2587 -5.02808
rfingers 7.12502
rthumb 7.05539 -34.8905
lclavicle -1.78906e-015 1.19271e-015
lhumerus 8.76594 3.95085 73.0371
lradius 106.463
lwrist 11.8985
lhand -15.0941 31.9968
lfingers 7.12502
lthumb 11.074 61.6847
rfemur -73.5213 0.350157 14.3115
rtibia 77.5201
rfoot -18.4987 -2.77241
rtoes -8.1624
lfemur -34.8247 1.28165 7.36416
ltibia 82.6043
lfoot -27.0257 -9.75674
ltoes -44.7562
1350
root -1.24094 12.6399 4.87039 15.8818 -3.43714 -3.05213
lowerback 14.583 1.37344 3.172
upperback -0.243166 2.32511 -0.422576
thorax -8.31494 0.976919 -2.74489
lowerneck -8.76784 6.51149 16.7111
upperneck 21.0145 7.34681 -5.89018
head 8.91087 4.19925 -3.96964
rclavicle -1.45113e-014 1.19271e-015
rhumerus 17.7646 28.732 -82.4407
rradius 134.748
rwrist -42.0858
rhand -19.0911 -4.92594
rfingers 7.12502
rthumb 7.21723 -34.7829
lclavicle -1.45113e-014 1.19271e-015
lhumerus 11.4724 5.67934 71.5867
lradius 100.645
lwrist 10.8352
lhand -16.0078 32.136
lfingers 7.12502
lthumb 10.1926 61.8691
rfemur -73.5266 1.18899 15.2145
rtibia 76.6204
rfoot -18.0351 -1.40933
rtoes -7.87467
lfemur -33.4933 1.59429 7.28535
ltibia 82.6737
lfoot -26.8655 -9.02923
ltoes -44.5831
